<svg id="Twotone" height="512" viewBox="0 0 64 64" width="512" xmlns="http://www.w3.org/2000/svg"><g id="Stroke_copy" data-name="Stroke copy"><path d="m32 3-29 17h58zm0 9a2 2 0 1 1 2-2 2 2 0 0 1 -2 2z" fill="#cff09e"/><path d="m3 57h58v4h-58z" fill="#79bd9a"/><path d="m9 53h-3v4h52v-2h-47a2 2 0 0 1 -2-2z" fill="#cff09e"/><path d="m9 49h12v4h-12z" fill="#a8dba8"/><path d="m9 24h12v4h-12z" fill="#a8dba8"/><path d="m6 20h52v4h-52z" fill="#79bd9a"/><g fill="#a8dba8"><path d="m26 49h12v4h-12z"/><path d="m26 24h12v4h-12z"/><path d="m43 49h12v4h-12z"/><path d="m43 24h12v4h-12z"/></g><path d="m51 31h2v-3h-8v21h8v-2a4 4 0 0 1 -4-4v-10a2 2 0 0 1 2-2z" fill="#cff09e"/><path d="m34 31h2v-3h-8v21h8v-2a4 4 0 0 1 -4-4v-10a2 2 0 0 1 2-2z" fill="#cff09e"/><path d="m17 31h2v-3h-8v21h8v-2a4 4 0 0 1 -4-4v-10a2 2 0 0 1 2-2z" fill="#cff09e"/><path d="m32 6.48-17.95 10.52h35.95zm0 5.52a2 2 0 1 1 2-2 2 2 0 0 1 -2 2z" fill="#79bd9a"/></g><g id="Stroke_Close_copy" fill="#3b8686" data-name="Stroke Close copy"><path d="m61 56h-2v-3a1 1 0 0 0 -1-1h-2v-3a1 1 0 0 0 -1-1h-1v-19h1a1 1 0 0 0 1-1v-3h2a1 1 0 0 0 1-1v-3h2a1 1 0 0 0 .51-1.86l-29-17a1 1 0 0 0 -1 0l-29 17a1 1 0 0 0 .49 1.86h2v3a1 1 0 0 0 1 1h2v3a1 1 0 0 0 1 1h1v19h-1a1 1 0 0 0 -1 1v3h-2a1 1 0 0 0 -1 1v3h-2a1 1 0 0 0 -1 1v4a1 1 0 0 0 1 1h58a1 1 0 0 0 1-1v-4a1 1 0 0 0 -1-1zm-22-4v-3a1 1 0 0 0 -1-1h-1v-19h1a1 1 0 0 0 1-1v-3h3v3a1 1 0 0 0 1 1h1v19h-1a1 1 0 0 0 -1 1v3zm-17 0v-3a1 1 0 0 0 -1-1h-1v-19h1a1 1 0 0 0 1-1v-3h3v3a1 1 0 0 0 1 1h1v19h-1a1 1 0 0 0 -1 1v3zm-4-23v19h-2v-19zm17 19h-2v-19h2zm-6 0v-19h2v19zm-2-21v-2h10v2zm0 23h10v2h-10zm19-2v-19h2v19zm-2 2h10v2h-10zm8-2h-2v-19h2zm2-21h-10v-2h10zm-22-22.84 25.32 14.84h-50.64zm-25 16.84h50v2h-50zm13 4v2h-10v-2zm-8 4h2v19h-2zm-2 21h10v2h-10zm-3 4h50v2h-50zm53 6h-56v-2h56z"/><path d="m32 13a3 3 0 1 0 -3-3 3 3 0 0 0 3 3zm0-4a1 1 0 1 1 -1 1 1 1 0 0 1 1-1z"/><path d="m44 15h-24a1 1 0 0 0 0 2h24a1 1 0 0 0 0-2z"/></g></svg>